<?xml version="1.0" encoding="utf-8"?>
<!-- Generator: Adobe Illustrator 27.9.2, SVG Export Plug-In . SVG Version: 6.00 Build 0)  -->
<svg version="1.1" id="Calque_1" xmlns="http://www.w3.org/2000/svg" xmlns:xlink="http://www.w3.org/1999/xlink" x="0px" y="0px"
	 viewBox="0 0 1696.9 367" style="enable-background:new 0 0 1696.9 367;" xml:space="preserve">
<style type="text/css">
	.st0{fill:#4DC7E8;}
</style>
<path class="st0" d="M1643.6,313.4c-23.2-2.7-48.7-1.4-67.2-15.7c-12-9.3-21.7-25.1-36.9-24.7c-19.6,0.6-35.8,29.1-52.7,19.1
	c-5.8-3.4-8.3-10.2-11.8-15.9c-11-17.8-35.7-25.8-55-17.8c-11.7,4.8-25.5,14.4-35.2,6.3c-4.3-3.6-5.7-9.4-7.4-14.7
	c-13-39-61.9-61.6-100.1-46.2c2-42.8-24.8-85.4-64.2-102.2s-88.7-6.5-118.2,24.5C1096.8,60.4,1036.8-0.7,971,0
	c-59.3,0.6-112.7,51.2-120.4,109.2c-2.1-27.5-17.5-54-39.4-71.4c-27-21.5-62.4-30.4-96.9-30.6c-79.4-0.4-163.4,55.2-170.1,134.3
	c-10-50.6-61.8-89.2-113.1-84.4c-51.3,4.8-95,52.4-95.4,104c-0.2,25.5,6.8,56.3-13,72.2c-29.1,23.4-75.2-17.2-108,0.5
	c-22.5,12.1-30.4,48.1-56,49.2c-13,0.5-24.7-9.2-37.7-8.7c-17.2,0.8-27.9,18.3-41.5,28.9c-17.6,13.7-41.8,16.2-60.5,28.4
	C7.6,339.3-0.2,354.2,0,367h1694.6c2-4.9,2.8-10.3,2-16.1C1693.5,327.8,1666.8,316,1643.6,313.4z"/>
</svg>
